<?xml version="1.0" standalone="no"?>
<!DOCTYPE svg PUBLIC "-//W3C//DTD SVG 20010904//EN"
 "http://www.w3.org/TR/2001/REC-SVG-20010904/DTD/svg10.dtd">
<svg version="1.0" xmlns="http://www.w3.org/2000/svg"
 width="1024.000000pt" height="1024.000000pt" viewBox="0 0 1024.000000 1024.000000"
 preserveAspectRatio="xMidYMid meet">

<g transform="translate(0.000000,1024.000000) scale(0.100000,-0.100000)"
fill="#000000" stroke="none">
<path d="M4991 6301 c-11 -20 -10 -81 0 -81 4 0 9 7 13 15 3 8 12 15 21 15 8
0 15 7 15 15 0 8 3 15 8 15 4 1 67 2 141 4 100 2 136 -1 146 -11 18 -17 25
-17 25 2 0 8 5 15 10 15 6 0 10 7 10 15 0 13 -28 15 -190 15 -175 0 -190 -1
-199 -19z"/>
<path d="M5375 6270 c-3 -5 1 -10 10 -10 9 0 13 5 10 10 -3 6 -8 10 -10 10 -2
0 -7 -4 -10 -10z"/>
<path d="M4960 6178 c-12 -22 -12 -22 6 -6 10 10 15 20 12 24 -4 3 -12 -5 -18
-18z"/>
<path d="M5510 6031 c0 -5 5 -13 10 -16 6 -3 10 -2 10 4 0 5 -4 13 -10 16 -5
3 -10 2 -10 -4z"/>
<path d="M5558 5970 c17 -11 32 -24 32 -30 0 -5 10 -10 23 -10 20 1 19 3 -13
30 -19 16 -44 30 -55 30 -16 0 -13 -4 13 -20z"/>
<path d="M4746 5911 c-3 -4 6 -6 19 -3 14 2 25 6 25 8 0 8 -39 4 -44 -5z"/>
<path d="M5620 5910 c0 -6 6 -10 13 -8 6 1 22 -3 34 -10 12 -7 24 -8 27 -3 6
9 -36 31 -59 31 -8 0 -15 -5 -15 -10z"/>
<path d="M5920 5904 c-19 -7 -43 -13 -52 -13 -9 -1 -24 -8 -32 -17 -10 -10
-16 -11 -16 -3 0 8 -14 10 -45 7 -26 -3 -45 -1 -45 4 0 5 -5 8 -11 6 -12 -4
-13 -23 -1 -23 4 0 13 -4 20 -8 7 -5 12 -3 13 5 0 7 4 4 9 -7 5 -11 9 -14 9
-8 1 10 7 10 26 1 14 -6 25 -15 25 -19 0 -4 7 -9 15 -13 12 -4 13 -2 5 13 -8
16 -7 18 12 13 14 -3 19 -1 14 6 -4 7 -3 12 2 12 6 0 12 -6 14 -12 5 -15 -37
-59 -47 -50 -3 3 -4 -5 -3 -19 2 -16 -1 -23 -11 -21 -11 2 -12 0 -2 -11 9 -11
9 -16 -1 -19 -7 -3 -19 -3 -26 -1 -10 4 -10 8 0 21 12 15 11 16 -4 3 -14 -10
-15 -17 -7 -34 10 -18 9 -19 -10 -14 -14 3 -21 0 -21 -9 0 -12 -4 -12 -20 -4
-11 6 -20 7 -20 3 0 -4 -11 6 -24 22 -21 25 -27 28 -38 16 -11 -12 -10 -13 3
-9 10 4 23 -7 39 -31 13 -20 32 -44 43 -54 10 -10 20 -32 24 -48 3 -16 10 -26
16 -22 5 3 8 0 5 -8 -3 -8 7 -38 20 -68 14 -30 31 -84 39 -120 8 -36 19 -88
25 -116 12 -58 5 -303 -10 -331 -6 -11 -18 -41 -28 -69 -32 -94 -93 -202 -145
-259 -73 -80 -229 -186 -273 -186 -8 0 -16 -7 -20 -15 -4 -13 -33 -15 -174
-15 -139 0 -172 3 -182 15 -7 8 -19 15 -27 15 -16 0 -73 28 -157 78 -64 38
-186 182 -257 304 -42 71 -52 114 -66 263 -5 62 -9 77 -11 50 -2 -22 -9 -43
-15 -47 -9 -6 -9 -8 1 -8 6 0 12 -11 12 -25 0 -14 -6 -25 -12 -25 -8 0 -6 -5
4 -11 20 -11 13 -40 -8 -32 -8 3 -11 10 -7 16 3 6 1 7 -5 3 -15 -9 -4 -34 16
-39 15 -4 15 -5 -1 -12 -11 -5 -24 -2 -36 9 -23 21 -31 12 -21 -25 6 -19 5
-29 -2 -29 -5 0 -8 -7 -5 -15 4 -8 1 -17 -5 -21 -6 -4 -8 -3 -4 4 3 6 2 13 -3
17 -6 3 -17 -7 -25 -23 -8 -16 -22 -35 -31 -42 -10 -8 -21 -25 -26 -38 -5 -13
-13 -20 -19 -17 -5 3 -10 0 -10 -8 0 -21 -27 -29 -34 -11 -9 24 -7 27 8 15 10
-9 15 -8 20 4 3 8 2 15 -3 15 -5 0 -11 14 -13 31 -4 23 0 33 16 41 19 10 19 9
8 -4 -8 -10 -9 -19 -3 -22 15 -10 25 35 10 45 -12 8 -12 10 0 18 8 5 9 11 3
15 -6 3 -13 -3 -17 -14 -3 -11 -12 -26 -18 -33 -48 -52 -52 -58 -37 -68 11 -8
10 -9 -7 -4 -18 5 -24 1 -29 -20 -5 -19 4 -43 34 -95 22 -38 50 -98 61 -132
12 -35 34 -88 49 -118 27 -55 27 -55 70 -53 24 1 55 9 68 17 30 21 151 21 196
2 18 -8 46 -17 61 -21 17 -3 31 -15 37 -30 5 -14 20 -29 33 -34 31 -12 105
-96 123 -141 9 -19 21 -64 29 -98 7 -35 17 -68 22 -73 15 -15 379 -15 397 0 8
7 20 37 26 67 14 68 69 178 111 222 41 43 96 78 147 92 23 6 44 15 47 20 9 15
140 12 177 -4 84 -35 97 -36 110 -11 7 13 48 92 92 176 43 85 86 168 97 184
l18 31 -50 49 c-31 31 -64 77 -86 123 -91 189 -53 420 93 566 l34 34 -58 114
c-32 62 -81 152 -108 201 -53 94 -57 97 -124 71z"/>
<path d="M5020 5890 c0 -5 4 -10 9 -10 6 0 13 5 16 10 3 6 -1 10 -9 10 -9 0
-16 -4 -16 -10z"/>
<path d="M4386 5881 c-4 -5 1 -8 9 -7 21 3 31 16 12 16 -9 0 -18 -4 -21 -9z"/>
<path d="M4490 5880 c8 -5 20 -10 25 -10 6 0 3 5 -5 10 -8 5 -19 10 -25 10 -5
0 -3 -5 5 -10z"/>
<path d="M4534 5873 c10 -11 37 -12 30 -2 -3 5 -12 9 -21 9 -9 0 -13 -3 -9 -7z"/>
<path d="M4936 5854 c-5 -14 -4 -15 9 -4 17 14 19 20 6 20 -5 0 -12 -7 -15
-16z"/>
<path d="M4346 5814 c-4 -9 -4 -19 -1 -22 2 -3 7 3 11 12 4 9 4 19 1 22 -2 3
-7 -3 -11 -12z"/>
<path d="M4840 5816 c-6 -6 -10 -15 -10 -20 0 -8 3 -8 8 -1 4 6 18 16 32 22
24 11 24 11 2 10 -12 -1 -27 -6 -32 -11z"/>
<path d="M4799 5773 c-13 -16 -12 -17 4 -4 16 13 21 21 13 21 -2 0 -10 -8 -17
-17z"/>
<path d="M5745 5750 c-3 -5 -1 -10 4 -10 6 0 11 5 11 10 0 6 -2 10 -4 10 -3 0
-8 -4 -11 -10z"/>
<path d="M4735 5730 c-3 -6 1 -7 9 -4 18 7 21 14 7 14 -6 0 -13 -4 -16 -10z"/>
<path d="M4676 5665 c-42 -47 -61 -75 -51 -75 3 0 0 -6 -7 -14 -7 -8 -17 -11
-22 -8 -5 3 -6 0 -2 -7 10 -15 42 11 52 43 4 11 9 23 13 26 25 21 73 80 65 80
-5 0 -27 -20 -48 -45z"/>
<path d="M5015 5692 c-39 -8 -45 -22 -45 -106 0 -77 2 -84 27 -106 l26 -23 19
23 c14 18 18 40 18 115 0 97 -4 106 -45 97z"/>
<path d="M4257 5655 c-14 -30 -15 -35 -2 -35 13 0 17 6 14 26 0 4 4 10 10 13
5 4 7 12 2 19 -5 8 -13 0 -24 -23z"/>
<path d="M5147 5571 c-33 -34 -57 -69 -57 -81 0 -19 43 -70 60 -70 15 0 75 76
94 118 l19 42 -23 25 c-13 14 -27 25 -30 25 -4 0 -32 -27 -63 -59z"/>
<path d="M4222 5575 c-16 -35 -15 -55 3 -55 8 0 15 5 15 11 0 5 5 7 11 3 7 -4
7 1 -1 15 -9 17 -9 26 1 37 9 11 8 14 -3 14 -8 0 -20 -11 -26 -25z"/>
<path d="M4797 5583 c-4 -3 -7 -21 -7 -39 0 -41 64 -122 97 -123 30 -1 53 -38
53 -84 0 -21 6 -50 14 -65 8 -15 17 -45 21 -65 4 -21 18 -53 31 -73 13 -19 24
-44 24 -55 0 -11 5 -30 12 -42 6 -12 15 -35 19 -52 4 -16 17 -55 29 -85 12
-30 26 -68 30 -85 25 -88 55 -151 77 -159 19 -8 60 31 83 80 13 25 29 48 37
51 10 4 43 -24 97 -80 44 -47 91 -89 103 -92 17 -5 33 6 77 51 74 76 76 107
10 187 -25 31 -55 59 -66 63 -16 5 -48 57 -48 78 0 3 13 12 30 21 35 18 100
83 100 100 0 7 -15 24 -32 37 -35 26 -181 98 -199 98 -6 0 -22 9 -36 20 -14
11 -36 20 -48 20 -12 0 -28 7 -35 15 -7 8 -20 15 -30 15 -10 0 -23 7 -30 15
-7 8 -23 15 -35 15 -12 0 -34 9 -48 20 -14 11 -38 20 -55 20 -16 0 -37 9 -46
19 -11 13 -29 19 -49 18 -31 -2 -32 0 -37 45 -7 62 -58 118 -105 118 -18 0
-35 -3 -38 -7z"/>
<path d="M4580 5515 c-7 -9 -8 -15 -2 -15 5 0 12 7 16 15 3 8 4 15 2 15 -2 0
-9 -7 -16 -15z"/>
<path d="M4559 5464 c-17 -42 -22 -63 -20 -84 1 -8 11 12 21 45 20 62 19 89
-1 39z"/>
<path d="M4321 5387 c-1 -16 3 -26 9 -22 5 3 7 0 4 -8 -3 -8 1 -17 8 -19 9 -4
13 4 13 22 0 17 -5 26 -12 23 -6 -2 -13 4 -16 14 -3 12 -5 8 -6 -10z"/>
<path d="M4716 5374 c-22 -21 -20 -56 5 -88 16 -21 29 -26 63 -26 77 0 121 61
82 113 -18 23 -127 24 -150 1z"/>
<path d="M4520 5340 c-11 -7 -11 -10 -2 -10 8 0 10 -5 5 -12 -11 -18 -15 -94
-4 -82 7 7 22 115 17 114 -1 0 -8 -5 -16 -10z"/>
<path d="M4831 5215 c-57 -61 -67 -86 -51 -124 21 -51 38 -47 102 19 32 34 58
69 58 79 0 19 -43 71 -58 71 -5 0 -28 -20 -51 -45z"/>
<path d="M4370 5210 c0 -19 3 -21 12 -12 9 9 9 15 0 24 -9 9 -12 7 -12 -12z"/>
<path d="M4512 5170 c0 -14 2 -19 5 -12 2 6 2 18 0 25 -3 6 -5 1 -5 -13z"/>
<path d="M4381 5164 c0 -11 3 -14 6 -6 3 7 2 16 -1 19 -3 4 -6 -2 -5 -13z"/>
<path d="M4361 5022 c-6 -15 -13 -41 -14 -57 -1 -17 -8 -36 -15 -44 -17 -18
-7 -27 13 -11 8 7 15 24 15 37 0 14 10 34 23 45 14 12 16 18 6 15 -12 -4 -15
0 -11 19 6 32 -3 30 -17 -4z"/>
<path d="M4310 4772 c6 -13 14 -21 18 -18 3 4 -2 14 -12 24 -18 16 -18 16 -6
-6z"/>
</g>
</svg>
